<?xml version="1.0" standalone="no"?><!DOCTYPE svg PUBLIC "-//W3C//DTD SVG 1.1//EN" "http://www.w3.org/Graphics/SVG/1.1/DTD/svg11.dtd"><svg t="1597303408207" class="icon" viewBox="0 0 1024 1024" version="1.1" xmlns="http://www.w3.org/2000/svg" p-id="40620" xmlns:xlink="http://www.w3.org/1999/xlink" width="200" height="200"><defs><style type="text/css"></style></defs><path d="M452.7 267.6L128.2 73.9c-12.8-7.6-28.7-7.8-41.7-0.5-12.8 7.3-20.8 20.9-20.8 35.6v805c0 14.7 8 28.3 20.8 35.6 6.3 3.6 13.4 5.4 20.4 5.4 7.4 0 14.7-2 21.2-5.8l324.5-193.8c12.3-7.4 20-20.8 20-35.2V302.8c0.1-14.3-7.6-27.8-19.9-35.2z m-52 435l-263 157V163.4l263 157v382.2zM938 74.8c-12.9-7.3-28.9-7.2-41.7 0.5L571.8 269c-12.3 7.4-20 20.8-20 35.2v417.5c0 14.3 7.7 27.8 20 35.1l324.5 193.8c6.5 3.9 13.9 5.8 21.2 5.8 7.1 0 14.1-1.8 20.4-5.4 12.8-7.3 20.8-20.9 20.8-35.6v-805c0.1-14.7-7.9-28.3-20.7-35.6z" p-id="40621"></path></svg>