<?xml version="1.0" standalone="no"?><!DOCTYPE svg PUBLIC "-//W3C//DTD SVG 1.1//EN" "http://www.w3.org/Graphics/SVG/1.1/DTD/svg11.dtd"><svg t="1597198943005" class="icon" viewBox="0 0 1024 1024" version="1.1" xmlns="http://www.w3.org/2000/svg" p-id="1652" xmlns:xlink="http://www.w3.org/1999/xlink" width="200" height="200"><defs><style type="text/css"></style></defs><path d="M794.112 859.648c0-24.064-19.456-43.52-43.52-43.52s-43.52 19.456-43.52 43.52c0 23.552 19.456 43.52 43.52 43.52s43.52-19.968 43.52-43.52z m130.56 0c0-24.064-19.456-43.52-43.52-43.52s-43.52 19.456-43.52 43.52c0 23.552 19.456 43.52 43.52 43.52s43.52-19.968 43.52-43.52z m43.52-124.928v162.816c0 27.136-23.552 49.152-52.736 49.152H108.544c-29.184 0-52.736-22.016-52.736-49.152v-162.816c0-27.136 23.552-49.152 52.736-49.152h233.984c14.848 37.888 53.76 65.024 99.328 65.024h140.288c45.568 0 84.48-27.648 99.328-65.024h233.984c29.184 0 52.736 22.016 52.736 49.152z m-176.64-357.376c-5.12 13.312-17.92 22.016-32.768 22.528h-141.312V650.24c0 19.456-15.872 35.84-35.328 35.84H441.344c-19.456 0-35.328-16.384-35.328-35.84V399.36H264.704c-14.336 0-27.136-9.216-32.768-22.528-5.632-13.312-2.56-28.672 7.68-38.4l247.296-250.368c6.656-6.656 15.36-10.752 24.576-10.752 8.704 0 18.432 3.584 24.576 10.752L783.36 338.432c10.752 10.24 13.824 25.6 8.192 38.912z" p-id="1653"></path></svg>