<?xml version="1.0" standalone="no"?><!DOCTYPE svg PUBLIC "-//W3C//DTD SVG 1.1//EN" "http://www.w3.org/Graphics/SVG/1.1/DTD/svg11.dtd"><svg t="1597299260669" class="icon" viewBox="0 0 1024 1024" version="1.1" xmlns="http://www.w3.org/2000/svg" p-id="20623" xmlns:xlink="http://www.w3.org/1999/xlink" width="200" height="200"><defs><style type="text/css"></style></defs><path d="M842.752 719.04v-472.32a33.088 33.088 0 0 0-33.088-33.088H122.944v-52.544c0-18.304 14.848-33.088 33.088-33.088h736.64a33.088 33.088 0 0 1 33.088 33.088v524.544a33.088 33.088 0 0 1-33.088 33.408h-49.92z m-40.96-430.08v523.968a33.088 33.088 0 0 1-33.088 33.088H33.088A33.088 33.088 0 0 1 0 812.928V289.024c0-18.304 14.784-33.088 33.088-33.088H768.64c18.24 0 33.024 14.784 33.024 33.088zM149.76 623.36H66.816V435.2h-47.36v227.84H149.76v-39.68zM256.896 435.2H179.84v227.84H256.64c31.552 1.216 62.336-10.368 85.312-32.128 22.464-22.272 34.496-52.992 33.024-84.608 0-74.048-39.36-111.104-118.016-111.104z m268.8 0H469.76L388.48 663.04h51.584l16.192-52.288h80.64l16.896 52.224h51.584L525.696 435.2z m184.128 0H633.472v227.84h47.296V583.68h24.448a90.88 90.88 0 0 0 62.464-20.48c16.64-13.696 25.984-34.368 25.152-55.936 0-48.256-27.776-72.064-83.008-72.064z m-8.576 111.04h-20.48V472.832h20.8a34.24 34.24 0 0 1 41.344 36.032 34.944 34.944 0 0 1-41.664 37.376z m-209.28-48.512c1.984-6.4 3.328-12.864 3.968-19.52h1.28c0.384 6.848 1.536 13.568 3.328 20.16l25.152 79.04h-59.2l25.472-79.68z m-238.72 129.024h-25.792v-148.48h25.472c19.2-0.832 38.016 5.888 52.224 18.88 14.08 14.08 21.376 33.408 20.16 53.184 1.152 20.48-5.76 40.448-19.2 55.872-13.888 14.08-33.088 21.504-52.864 20.48z" p-id="20624"></path></svg>