<?xml version="1.0" standalone="no"?><!DOCTYPE svg PUBLIC "-//W3C//DTD SVG 1.1//EN" "http://www.w3.org/Graphics/SVG/1.1/DTD/svg11.dtd"><svg t="1597298426183" class="icon" viewBox="0 0 1024 1024" version="1.1" xmlns="http://www.w3.org/2000/svg" p-id="16422" xmlns:xlink="http://www.w3.org/1999/xlink" width="200" height="200"><defs><style type="text/css"></style></defs><path d="M294.954667 682.666667h85.248C405.333333 796.928 454.933333 874.666667 512 874.666667s106.666667-77.738667 131.797333-192h85.248c-12.672 58.666667-31.68 111.04-55.381333 154.069333A364.266667 364.266667 0 0 0 832.085333 682.666667h94.250667C859.221333 845.44 698.986667 960 512 960S164.778667 845.44 97.664 682.666667h94.250667a364.266667 364.266667 0 0 0 158.421333 154.069333C326.613333 793.706667 307.626667 741.312 294.954667 682.666667z m0-341.333334c12.672-58.666667 31.68-111.04 55.381333-154.069333A364.266667 364.266667 0 0 0 191.914667 341.333333H97.664C164.778667 178.56 325.013333 64 512 64s347.221333 114.56 414.336 277.333333h-94.250667a364.266667 364.266667 0 0 0-158.421333-154.069333c23.701333 43.029333 42.709333 95.424 55.381333 154.069333h-85.248C618.666667 227.072 569.066667 149.333333 512 149.333333s-106.666667 77.738667-131.797333 192h-85.248z m-176.64 56.533334h61.674666l80.512 118.250666V397.866667h62.272v213.802666h-62.293333l-80.042667-117.397333v117.397333H118.314667V397.845333z m301.589333 0h200.810667v52.778666h-67.370667v161.002667h-66.048v-161.002667h-67.392v-52.8z m298.688 0h109.824c23.893333 0 41.813333 5.674667 53.738667 17.066666 11.904 11.349333 17.856 27.541333 17.856 48.554667 0 21.568-6.485333 38.442667-19.477334 50.602667-12.970667 12.16-32.768 18.218667-59.413333 18.218666h-36.16v79.338667h-66.346667V397.845333z m66.346667 91.136h16.213333c12.714667 0 21.674667-2.218667 26.816-6.634667 5.162667-4.437333 7.722667-10.090667 7.722667-17.002667 0-6.698667-2.218667-12.373333-6.698667-17.066666-4.48-4.650667-12.885333-6.976-25.237333-6.976h-18.794667v47.68z" p-id="16423"></path></svg>