<?xml version="1.0" standalone="no"?><!DOCTYPE svg PUBLIC "-//W3C//DTD SVG 1.1//EN" "http://www.w3.org/Graphics/SVG/1.1/DTD/svg11.dtd"><svg t="1597300229396" class="icon" viewBox="0 0 1024 1024" version="1.1" xmlns="http://www.w3.org/2000/svg" p-id="22909" xmlns:xlink="http://www.w3.org/1999/xlink" width="200" height="200"><defs><style type="text/css"></style></defs><path d="M134.170792 958.305789c-4.331655 0-8.697079-1.198292-12.558014-3.641947-9.202593-5.831822-13.21293-17.241686-9.708106-27.567869l227.615021-671.182442c2.780323-8.194636 9.81146-14.198374 18.314111-15.662725 8.513908-1.452071 17.130146 1.890047 22.461571 8.67866l200.224184 241.742786L917.913846 67.963904c8.019651-7.744381 20.358677-8.735965 29.5275-2.489704 9.191336 6.269797 12.753465 18.140149 8.525164 28.466332L631.348202 888.279922c-3.101641 7.652284-9.973142 13.09218-18.107403 14.383592-8.042163 1.221828-16.314571-1.797949-21.62246-8.090259l-197.36916-229.783407-243.659439 286.831704C146.06161 956.023816 140.144854 958.305789 134.170792 958.305789z" p-id="22910"></path></svg>