<?xml version="1.0" standalone="no"?><!DOCTYPE svg PUBLIC "-//W3C//DTD SVG 1.1//EN" "http://www.w3.org/Graphics/SVG/1.1/DTD/svg11.dtd"><svg t="1597300349551" class="icon" viewBox="0 0 1000 1000" version="1.1" xmlns="http://www.w3.org/2000/svg" p-id="23643" xmlns:xlink="http://www.w3.org/1999/xlink" width="200" height="200"><defs><style type="text/css"></style></defs><path d="M940.0782 274.9336c-15.9568-15.9552-41.8423-15.9552-57.8142 0L697.5557 459.5994 538.6829 300.7311l184.6904-184.7178c15.9558-15.9542 15.9558-41.8386 0-57.8108-15.9908-15.9722-41.8583-15.9722-57.8302 0L480.8697 242.9203l-57.8142-57.8108c0 0-0.016 0-0.035-0.036l-33.2628-33.2275c-13.3015-13.334-34.8958-13.334-48.1783 0-13.3165 13.262-13.3165 34.8594 0 48.1583l9.2191 9.1998-62.3443 62.3247c-61.8956 61.907-97.5009 142.8412-100.2102 227.9265-2.0647 64.5992 14.9485 125.7777 48.61 177.2019-0.9374 0.8654-1.9947 1.525-2.9141 2.3944L97.1141 815.8908c-23.9238 23.9588-23.9238 62.7575 0 86.7352 11.9804 11.9769 27.6754 17.9508 43.3854 17.9508 15.697 0 31.407-5.9739 43.3534-17.9698l136.8238-136.8172c0.9544-0.9374 1.614-2.0496 2.4654-3.006 48.664 31.7525 106.1654 48.8699 166.8237 48.8699 0.035 0 0 0 0.035 0 88.8734 0 173.5095-35.6398 238.2342-100.3759l62.3233-62.3118 6.217 6.2358c6.6678 6.6305 15.4012 9.9632 24.0976 9.9632 8.7144 0 17.4659-3.3327 24.0976-9.9632 13.3145-13.335 13.3145-34.8973 0-48.1753l-89.5859-89.5993 184.6934-184.6658C956.05 316.7902 956.05 290.9058 940.0782 274.9336z" p-id="23644"></path></svg>