<?xml version="1.0" standalone="no"?><!DOCTYPE svg PUBLIC "-//W3C//DTD SVG 1.1//EN" "http://www.w3.org/Graphics/SVG/1.1/DTD/svg11.dtd"><svg t="1597299721385" class="icon" viewBox="0 0 1024 1024" version="1.1" xmlns="http://www.w3.org/2000/svg" p-id="21592" xmlns:xlink="http://www.w3.org/1999/xlink" width="200" height="200"><defs><style type="text/css"></style></defs><path d="M49.113389 536.584479c74.997831-396.18854 405.688265-403.388332 434.887421-403.288335V21.699372c0-17.199502 19.499436-27.799196 33.499031-17.799485 0.399988 0.299991 0.69998 0.499986 0.999971 0.799977l259.692488 209.893929c9.499725 7.699777 9.499725 20.199416 0 27.899193L518.599809 452.286917c-0.299991 0.299991-0.69998 0.499986-0.999971 0.799977-13.999595 10.099708-33.499031-0.499986-33.499031-17.799485V323.59064c-26.799225-1.39996-306.99112-10.999682-434.987418 212.993839zM539.99919 700.379741V588.582975c0-17.199502-19.499436-27.799196-33.499031-17.799485-0.399988 0.299991-0.69998 0.499986-0.999971 0.799977L245.707703 781.477395c-9.499725 7.699777-9.499725 20.199416 0 27.899193l259.692488 209.893929c0.299991 0.299991 0.69998 0.499986 0.999971 0.799977 13.999595 10.099708 33.499031-0.499986 33.499031-17.799485V890.674237c29.199155 0.099997 359.989587-7.099795 434.887421-403.288335-127.8963 223.993521-408.088196 214.393798-434.787424 212.993839z" p-id="21593"></path></svg>