<?xml version="1.0" standalone="no"?><!DOCTYPE svg PUBLIC "-//W3C//DTD SVG 1.1//EN" "http://www.w3.org/Graphics/SVG/1.1/DTD/svg11.dtd"><svg t="1598234482498" class="icon" viewBox="0 0 1024 1024" version="1.1" xmlns="http://www.w3.org/2000/svg" p-id="3553" xmlns:xlink="http://www.w3.org/1999/xlink" width="128" height="128"><defs><style type="text/css"></style></defs><path d="M892.761 160.724v426.504c0 25.588-6.419 51.036-19.177 76.339-12.798 25.336-29.547 49.86-50.254 73.627-20.707 23.79-44.372 46.296-70.97 67.516-26.589 21.244-53.543 40.177-80.921 56.768-27.363 16.623-53.968 30.461-79.801 41.438-25.809 11.008-48.433 18.547-67.871 22.64l-9.203 1.53-8.43-1.53c-19.958-4.093-43.094-11.632-69.432-22.64-26.337-10.969-53.708-24.816-82.080-41.438-28.388-16.591-56.256-35.524-83.618-56.768-27.378-21.219-51.776-43.725-73.265-67.516-21.488-23.759-38.868-48.291-52.155-73.627-13.319-25.305-19.974-50.759-19.974-76.339v-426.504l31.455-4.629 352.892-65.97 359.784 65.97 23.017 4.629zM510.028 151.884l-4.211-0.844-302.89 51.476v269.101h307.102v-319.734zM815.434 471.634h-305.406v383.031c19.682-4.51 41.052-11.411 64.141-20.692 23.033-9.249 45.815-20.234 68.304-32.867 22.513-12.672 44.159-26.739 64.969-42.203 20.818-15.472 39.23-32.047 55.277-49.797 16.024-17.703 28.822-36.131 38.386-55.222 9.549-19.131 14.328-38.553 14.328-58.235v-124.015z" p-id="3554"></path></svg>