<?xml version="1.0" standalone="no"?><!DOCTYPE svg PUBLIC "-//W3C//DTD SVG 1.1//EN" "http://www.w3.org/Graphics/SVG/1.1/DTD/svg11.dtd"><svg t="1597298729920" class="icon" viewBox="0 0 1024 1024" version="1.1" xmlns="http://www.w3.org/2000/svg" p-id="19804" xmlns:xlink="http://www.w3.org/1999/xlink" width="200" height="200"><defs><style type="text/css"></style></defs><path d="M940.741861 191.367439c0 0-225.337717 376.607026-766.777602 425.639047 0 0 186.387792-210.716017 406.861501-273.310566 0 0 62.944537-25.738409-20.865191-18.79392 0 0-269.153697 22.951812-428.769491 260.808235 0 0-44.43511-300.696577 255.43869-334.404877 1.432697-0.163737 2.876652-0.32645 4.32777-0.47279C695.581751 219.534269 702.884415 261.263628 940.741861 191.367439z" p-id="19805"></path><path d="M581.421353 517.801401c-14.980898 2.086621-27.482206 7.384532-35.821528 11.883202L322.283234 696.683905c-0.912833 1.531963-1.751984 3.504992-2.493917 5.851546-4.994997 66.978603 62.822758 46.961774 62.822758 46.961774l154.659684-104.844796c74.363135-22.967163 70.418101 23.994611 60.507928 45.642669-2.682214 5.867919-6.781775 8.601301-6.781775 8.601301L408.692284 809.474031l-257.670628 0c-2.917586 1.023355-5.29791 1.373343-7.156324 2.124486-31.891844 29.096037-13.22789 57.118575-4.767812 66.867058 1.891161 1.303755 4.35233 2.772269 6.976213 3.765947l377.243553 2.397721L742.26722 720.401187l181.261805-4.03509 0.521911-200.035258L581.421353 517.801401z" p-id="19806"></path></svg>