<?xml version="1.0" standalone="no"?><!DOCTYPE svg PUBLIC "-//W3C//DTD SVG 1.1//EN" "http://www.w3.org/Graphics/SVG/1.1/DTD/svg11.dtd"><svg t="1596420700587" class="icon" viewBox="0 0 1031 1024" version="1.1" xmlns="http://www.w3.org/2000/svg" p-id="4793" width="128.875" height="128" xmlns:xlink="http://www.w3.org/1999/xlink"><defs><style type="text/css"></style></defs><path d="M292.571429 219.428571v-51.2C292.571429 95.085714 351.085714 36.571429 424.228571 36.571429h182.857143c73.142857 0 124.342857 58.514286 124.342857 131.657142v58.514286H658.285714v-58.514286c0-36.571429-21.942857-58.514286-51.2-58.514285H424.228571c-36.571429 0-58.514286 21.942857-58.514285 58.514285v58.514286L292.571429 219.428571z m731.428571 131.657143c0-51.2-43.885714-95.085714-87.771429-95.085714H95.085714C43.885714 256 0 299.885714 0 351.085714v548.571429c0 51.2 43.885714 87.771429 95.085714 87.771428h841.142857c51.2 0 87.771429-43.885714 95.085715-95.085714V351.085714H1024zM877.714286 950.857143v-36.571429h51.2c14.628571 0 21.942857-7.314286 21.942857-21.942857v-51.2h36.571428v51.2c0 29.257143-21.942857 58.514286-58.514285 58.514286H877.714286zM146.285714 292.571429v36.571428h-51.2c-14.628571 0-21.942857 7.314286-21.942857 21.942857v51.2H36.571429v-51.2c0-29.257143 21.942857-58.514286 58.514285-58.514285H146.285714z m182.857143 512c-102.4-102.4-102.4-263.314286 0-365.714286s263.314286-102.4 365.714286 0 102.4 263.314286 0 365.714286c-51.2 51.2-117.028571 73.142857-182.857143 73.142857s-131.657143-29.257143-182.857143-73.142857zM877.714286 292.571429h51.2c29.257143 0 58.514286 21.942857 58.514285 58.514285v51.2H950.857143v-51.2c0-14.628571-7.314286-21.942857-21.942857-21.942857H877.714286V292.571429zM146.285714 950.857143h-51.2c-29.257143 0-58.514286-21.942857-58.514285-58.514286v-51.2H73.142857v51.2c0 14.628571 7.314286 21.942857 21.942857 21.942857H146.285714v36.571429z m307.2-504.685714h117.028572v117.028571h117.028571v117.028571H570.514286v117.028572H453.485714V680.228571H336.457143V563.2h117.028571V446.171429" p-id="4794"></path></svg>