<?xml version="1.0" standalone="no"?><!DOCTYPE svg PUBLIC "-//W3C//DTD SVG 1.1//EN" "http://www.w3.org/Graphics/SVG/1.1/DTD/svg11.dtd"><svg t="1597301959191" class="icon" viewBox="0 0 1024 1024" version="1.1" xmlns="http://www.w3.org/2000/svg" p-id="33410" xmlns:xlink="http://www.w3.org/1999/xlink" width="200" height="200"><defs><style type="text/css"></style></defs><path d="M760.539429 24.868571H42.276571A42.422857 42.422857 0 0 0 0 66.998857V574.171429c0 23.186286 19.017143 42.276571 42.276571 42.276571h95.085715v178.761143c0 21.357714 24.868571 32.914286 41.252571 19.309714l237.641143-198.070857h344.283429a42.422857 42.422857 0 0 0 42.349714-42.276571V67.072a42.422857 42.422857 0 0 0-42.349714-42.276571z" p-id="33411"></path><path d="M830.390857 999.131429a55.369143 55.369143 0 0 1-35.766857-13.092572l-229.010286-190.902857H443.684571a31.085714 31.085714 0 0 1 0-62.171429h144.310858l236.544 197.193143v-196.900571h126.098285c6.070857 0 11.190857-5.12 11.190857-11.190857v-380.342857a11.337143 11.337143 0 0 0-11.190857-11.190858h-84.48a31.085714 31.085714 0 0 1 0-62.171428h84.48c40.448 0 73.216 32.914286 73.216 73.216v380.342857c0 40.448-32.914286 73.289143-73.216 73.289143h-64v147.675428a55.588571 55.588571 0 0 1-32.329143 50.834286 55.588571 55.588571 0 0 1-23.917714 5.485714z" p-id="33412"></path></svg>