<?xml version="1.0" standalone="no"?><!DOCTYPE svg PUBLIC "-//W3C//DTD SVG 1.1//EN" "http://www.w3.org/Graphics/SVG/1.1/DTD/svg11.dtd"><svg t="1597301063540" class="icon" viewBox="0 0 1024 1024" version="1.1" xmlns="http://www.w3.org/2000/svg" p-id="25954" xmlns:xlink="http://www.w3.org/1999/xlink" width="200" height="200"><defs><style type="text/css"></style></defs><path d="M1024 224V128c0-70.4-57.6-128-128-128H128C57.6 0 0 57.6 0 128v96h1024zM0 288V896c0 70.4 57.6 128 128 128h768c70.4 0 128-57.6 128-128V288H0z m326.4 486.4c12.8 6.4 19.2 25.6 12.8 44.8s-25.6 19.2-44.8 12.8l-211.2-160s-6.4 0-6.4-6.4l-6.4-6.4v-6.4-6.4-6.4-6.4-6.4-6.4l6.4-6.4 6.4-6.4L294.4 448c12.8-6.4 32 0 44.8 19.2 6.4 12.8 6.4 32-12.8 44.8l-166.4 128 166.4 134.4z m256-281.6l-83.2 307.2c-6.4 19.2-19.2 25.6-38.4 25.6-19.2-6.4-25.6-19.2-25.6-38.4l83.2-307.2c6.4-19.2 25.6-32 44.8-25.6 12.8 6.4 25.6 19.2 19.2 38.4z m377.6 153.6s0 6.4 0 0c0 6.4 0 6.4-6.4 12.8l-6.4 6.4-6.4 6.4-211.2 160c-12.8 6.4-32 6.4-44.8-12.8s-6.4-32 12.8-44.8l166.4-134.4-166.4-134.4c-12.8-6.4-19.2-25.6-12.8-44.8 6.4-12.8 25.6-19.2 44.8-12.8l211.2 160s6.4 0 6.4 6.4l6.4 6.4v12.8c6.4 0 6.4 6.4 6.4 12.8 0-6.4 0 0 0 0z" p-id="25955"></path></svg>